<?xml version="1.0" standalone="no"?>
<!DOCTYPE svg PUBLIC "-//W3C//DTD SVG 20010904//EN"
 "http://www.w3.org/TR/2001/REC-SVG-20010904/DTD/svg10.dtd">
<svg version="1.0" xmlns="http://www.w3.org/2000/svg"
 width="760.000000pt" height="760.000000pt" viewBox="0 0 760.000000 760.000000"
 preserveAspectRatio="xMidYMid meet">
<metadata>
Created by potrace 1.14, written by Peter Selinger 2001-2017
</metadata>
<g transform="translate(0.000000,760.000000) scale(0.100000,-0.100000)"
fill="#000000" stroke="none">
<path d="M5938 7595 c-2 -2 -17 -6 -33 -9 -35 -6 -110 -22 -145 -30 -14 -3
-38 -8 -55 -11 -38 -5 -86 -14 -165 -30 -87 -18 -180 -36 -210 -41 -19 -3 -42
-10 -51 -15 -9 -4 -18 -6 -21 -4 -2 2 -60 -7 -128 -21 -69 -13 -138 -27 -155
-30 -16 -3 -61 -12 -100 -20 -38 -9 -85 -17 -103 -19 -18 -2 -42 -7 -52 -10
-10 -3 -29 -8 -42 -10 -13 -3 -68 -14 -123 -24 -55 -11 -113 -22 -130 -25 -16
-3 -55 -10 -85 -17 -30 -6 -66 -12 -80 -14 -14 -2 -126 -24 -249 -49 -124 -25
-236 -47 -250 -50 -14 -2 -46 -9 -71 -14 -25 -6 -63 -14 -85 -17 -49 -8 -83
-15 -110 -20 -11 -2 -33 -7 -50 -10 -16 -3 -37 -8 -46 -11 -9 -2 -32 -7 -50
-9 -19 -3 -43 -7 -54 -9 -43 -10 -272 -55 -305 -61 -19 -3 -42 -8 -50 -10 -8
-2 -28 -7 -45 -10 -16 -2 -39 -7 -50 -9 -31 -6 -337 -65 -365 -70 -14 -2 -25
-5 -25 -6 0 -1 -9 -3 -20 -5 -40 -6 -125 -21 -165 -30 -60 -13 -78 -16 -125
-26 -60 -11 -103 -19 -130 -24 -11 -2 -31 -6 -45 -9 -14 -3 -38 -8 -55 -11
-51 -10 -78 -15 -135 -27 -30 -6 -65 -12 -77 -13 -11 -2 -29 -6 -40 -9 -10 -3
-31 -8 -48 -11 -16 -2 -41 -7 -55 -10 -14 -3 -41 -8 -60 -11 -34 -6 -52 -10
-88 -18 -9 -2 -37 -7 -62 -12 -50 -9 -59 -11 -62 -13 -2 -1 -19 -4 -38 -7 -19
-2 -46 -7 -60 -10 -24 -7 -39 -10 -90 -18 -14 -2 -56 -11 -95 -19 -38 -9 -83
-18 -100 -20 -16 -3 -55 -11 -85 -17 -30 -6 -68 -14 -85 -17 -16 -2 -46 -8
-65 -12 l-35 -7 -3 -2735 -2 -2735 122 -61 c248 -124 468 -212 648 -258 37
-10 157 -37 180 -40 118 -18 288 -23 350 -10 14 3 37 7 53 10 42 8 140 47 155
62 7 7 17 13 22 13 14 0 105 87 120 114 16 31 23 32 47 8 55 -56 353 -271 353
-254 0 4 4 2 8 -4 4 -6 27 -21 52 -34 25 -14 52 -30 60 -36 8 -7 18 -13 23
-13 4 0 46 -19 94 -41 47 -23 93 -43 102 -46 9 -2 47 -15 85 -29 71 -27 223
-68 286 -79 19 -3 44 -7 55 -10 76 -15 186 -23 332 -25 90 -1 91 -1 89 -25 -5
-45 4 -48 134 -48 l122 0 277 -135 c152 -75 279 -137 282 -139 4 -2 14 15 22
39 9 23 22 56 28 72 7 17 13 32 14 35 1 3 7 18 13 33 7 16 12 33 12 38 0 5 4
17 9 27 6 9 24 55 42 102 17 47 37 99 44 115 6 17 27 69 45 118 29 77 39 93
89 135 101 85 159 164 183 247 21 70 12 175 -19 221 -14 22 -11 33 32 151 25
70 50 137 55 148 23 51 120 317 120 329 0 8 3 16 8 18 6 3 47 109 57 150 2 9
8 25 13 35 6 10 24 56 40 103 79 218 93 256 101 275 5 11 19 49 31 85 13 36
29 79 36 95 7 17 22 57 33 90 11 33 25 74 32 90 6 17 27 72 45 124 32 90 54
132 54 101 0 -7 17 -50 39 -94 21 -45 53 -115 71 -156 18 -41 41 -95 52 -120
43 -96 57 -128 93 -215 20 -49 43 -103 50 -120 7 -16 25 -59 39 -95 15 -36 31
-74 36 -85 4 -11 19 -47 31 -80 13 -33 27 -64 31 -70 4 -5 8 -17 8 -27 0 -10
5 -18 12 -18 6 0 8 -3 5 -7 -4 -3 -2 -12 4 -20 6 -7 9 -13 6 -13 -5 0 3 -22
45 -120 17 -39 25 -60 54 -135 15 -38 35 -89 45 -112 11 -23 19 -45 19 -48 0
-3 11 -31 25 -61 14 -30 25 -58 25 -61 0 -4 16 -46 36 -93 58 -135 74 -173 95
-213 10 -20 17 -37 14 -37 -6 0 95 -191 126 -237 58 -84 122 -110 148 -60 18
37 31 78 38 121 9 55 8 447 -1 566 -4 52 -9 120 -11 150 -2 30 -6 75 -9 100
-2 25 -7 77 -11 115 -4 39 -8 86 -11 105 -2 19 -7 60 -10 90 -3 30 -7 71 -9
90 -3 19 -7 62 -11 95 -3 33 -8 71 -10 85 -3 14 -7 39 -9 55 -2 17 -6 50 -9
75 -3 25 -8 70 -12 100 -3 30 -7 62 -9 70 -5 17 -15 88 -20 141 -1 20 -5 45
-8 55 -3 11 -8 44 -12 74 -3 30 -7 66 -9 80 -3 14 -7 48 -11 75 -3 28 -8 59
-11 70 -3 11 -6 36 -9 55 -3 35 -8 67 -25 170 -5 30 -12 75 -15 100 -4 25 -13
86 -20 135 -8 50 -17 106 -19 125 -3 19 -7 46 -10 60 -3 13 -8 42 -11 65 -3
22 -10 65 -15 95 -5 30 -12 70 -15 88 -3 17 -7 45 -10 61 -6 33 -15 101 -20
146 -2 17 -4 30 -5 30 -2 0 -7 23 -15 75 -4 25 -9 56 -12 70 -2 14 -5 36 -7
50 -2 14 -6 34 -9 45 -3 11 -8 43 -12 70 -3 28 -8 57 -10 65 -3 8 -7 31 -9 50
-3 19 -8 46 -11 60 -3 14 -7 43 -10 65 -3 22 -13 83 -23 136 -10 53 -14 102
-10 110 7 12 123 389 133 429 1 8 11 42 20 75 26 94 96 367 100 395 2 14 7 36
10 50 44 199 31 323 -31 300 -34 -13 -47 -25 -117 -111 -71 -88 -62 -75 -172
-242 -61 -94 -85 -123 -89 -110 -5 17 -33 165 -42 223 -2 14 -6 39 -9 55 -20
96 -47 244 -50 270 -3 27 -14 90 -30 168 -3 15 -7 37 -9 50 -9 50 -19 103 -23
122 -2 11 -6 35 -8 53 -2 18 -6 36 -9 40 -3 5 -8 31 -12 58 -3 27 -8 58 -10
69 -3 11 -9 43 -14 70 -5 28 -12 64 -15 80 -3 17 -7 39 -9 50 -8 44 -17 92
-23 120 -3 17 -7 39 -9 50 -1 11 -11 65 -22 120 -11 55 -23 116 -26 135 -19
113 -32 153 -48 156 -9 1 -18 0 -20 -1z m-1254 -2954 c11 -11 48 -44 80 -73
109 -98 241 -241 336 -367 14 -18 31 -39 38 -46 6 -8 12 -18 12 -23 0 -6 4
-12 8 -14 4 -1 23 -25 42 -53 19 -27 37 -52 40 -55 3 -3 16 -22 27 -42 l22
-37 -67 -106 c-37 -58 -72 -113 -77 -123 -26 -45 -284 -434 -347 -525 -77
-110 -81 -117 -98 -138 -8 -10 -33 -44 -55 -74 -54 -75 -197 -258 -254 -324
-79 -93 -176 -199 -182 -200 -8 -1 -10 1975 -3 2001 3 9 23 23 45 32 45 18
173 78 303 142 48 24 93 44 98 44 6 0 20 -9 32 -19z m-818 -1392 c1 -574 0
-1056 -3 -1071 -2 -16 -11 -28 -18 -28 -7 0 -15 -3 -17 -7 -4 -10 -127 -53
-151 -53 -20 0 -52 14 -224 96 -109 51 -114 55 -153 115 -40 62 -105 190 -112
219 -2 8 -6 17 -9 20 -3 3 -13 32 -23 65 -10 33 -24 74 -31 90 -15 35 -52 166
-60 212 -3 18 -9 42 -14 55 -5 13 -9 25 -9 28 -1 16 -14 87 -19 100 -3 8 -7
24 -9 35 -1 11 -5 34 -8 50 -4 17 -9 46 -12 65 -2 19 -9 58 -14 85 -12 65 -18
99 -25 160 -4 28 -8 57 -10 65 -2 8 -7 42 -11 75 -3 33 -8 74 -10 90 -3 17 -7
53 -10 81 l-5 50 108 60 c124 69 378 194 393 194 5 0 10 5 10 10 0 6 3 9 8 8
10 -2 56 15 82 31 8 5 26 13 40 19 14 6 46 20 71 31 127 59 225 99 234 97 7
-2 11 -360 11 -1047z"/>
</g>
</svg>
